<?xml version="1.0" encoding="UTF-8"?>
<svg width="512" height="512" viewBox="0 0 512 512" fill="none" xmlns="http://www.w3.org/2000/svg">
  <!-- Background Circle -->
  <circle cx="256" cy="256" r="240" fill="#16a34a" />
  
  <!-- Recycling Symbol -->
  <g fill="white">
    <!-- Arrow 1 -->
    <path d="M256 102.4C199.44 102.4 153.6 148.24 153.6 204.8H102.4C102.4 119.968 171.168 51.2 256 51.2V102.4Z" />
    <path d="M153.6 204.8C153.6 261.36 199.44 307.2 256 307.2V358.4C171.168 358.4 102.4 289.632 102.4 204.8H153.6Z" />
    
    <!-- Arrow 2 -->
    <path d="M256 307.2C312.56 307.2 358.4 261.36 358.4 204.8H409.6C409.6 289.632 340.832 358.4 256 358.4V307.2Z" />
    <path d="M358.4 204.8C358.4 148.24 312.56 102.4 256 102.4V51.2C340.832 51.2 409.6 119.968 409.6 204.8H358.4Z" />
    
    <!-- Arrow 3 -->
    <path d="M256 409.6C312.56 409.6 358.4 363.76 358.4 307.2H409.6C409.6 392.032 340.832 460.8 256 460.8V409.6Z" />
    <path d="M256 460.8C171.168 460.8 102.4 392.032 102.4 307.2H153.6C153.6 363.76 199.44 409.6 256 409.6V460.8Z" />
  </g>
  
  <!-- Center Circle -->
  <circle cx="256" cy="256" r="64" fill="white" />
  
  <!-- Letter W -->
  <path d="M224 240L243.2 272L262.4 240L281.6 272L300.8 240" stroke="#16a34a" stroke-width="16" stroke-linecap="round" stroke-linejoin="round" />
</svg>
