<?xml version="1.0" encoding="UTF-8"?>
<svg width="32" height="32" viewBox="0 0 32 32" fill="none" xmlns="http://www.w3.org/2000/svg">
  <!-- Background Circle -->
  <circle cx="16" cy="16" r="15" fill="#16a34a" />
  
  <!-- Recycling Symbol -->
  <g fill="white">
    <!-- Arrow 1 -->
    <path d="M16 6.4C12.465 6.4 9.6 9.265 9.6 12.8H6.4C6.4 7.498 10.698 3.2 16 3.2V6.4Z" />
    <path d="M9.6 12.8C9.6 16.335 12.465 19.2 16 19.2V22.4C10.698 22.4 6.4 18.102 6.4 12.8H9.6Z" />
    
    <!-- Arrow 2 -->
    <path d="M16 19.2C19.535 19.2 22.4 16.335 22.4 12.8H25.6C25.6 18.102 21.302 22.4 16 22.4V19.2Z" />
    <path d="M22.4 12.8C22.4 9.265 19.535 6.4 16 6.4V3.2C21.302 3.2 25.6 7.498 25.6 12.8H22.4Z" />
    
    <!-- Arrow 3 -->
    <path d="M16 25.6C19.535 25.6 22.4 22.735 22.4 19.2H25.6C25.6 24.502 21.302 28.8 16 28.8V25.6Z" />
    <path d="M16 28.8C10.698 28.8 6.4 24.502 6.4 19.2H9.6C9.6 22.735 12.465 25.6 16 25.6V28.8Z" />
  </g>
  
  <!-- Center Circle -->
  <circle cx="16" cy="16" r="4" fill="white" />
  
  <!-- Letter W -->
  <path d="M14 15L15.2 17L16.4 15L17.6 17L18.8 15" stroke="#16a34a" stroke-width="1" stroke-linecap="round" stroke-linejoin="round" />
</svg>
